<?xml version="1.0" encoding="utf-8"?>
<!-- Generator: Adobe Illustrator 16.0.4, SVG Export Plug-In . SVG Version: 6.00 Build 0)  -->
<!DOCTYPE svg PUBLIC "-//W3C//DTD SVG 1.1//EN" "http://www.w3.org/Graphics/SVG/1.1/DTD/svg11.dtd">
<svg version="1.1" xmlns="http://www.w3.org/2000/svg" xmlns:xlink="http://www.w3.org/1999/xlink" x="0px" y="0px"
	 width="380.981px" height="380.981px" viewBox="0 0 380.981 380.981" enable-background="new 0 0 380.981 380.981"
	 xml:space="preserve">
<g id="Layer_1">
	<g>
		<path fill="#F6AA20" d="M217.212,149.452l-34.268,34.266c-2.046,2.038-4.2,7.064-4.284,9.951l-0.007,0.336l7.714,7.707
			l0.336-0.008c2.887-0.076,7.905-2.24,9.944-4.278l34.268-34.266L217.212,149.452z"/>
		<path fill="#F6AA20" d="M190.49,7.5C90.256,7.5,9,88.757,9,188.991C9,289.227,90.256,370.482,190.49,370.482
			c100.235,0,181.491-81.256,181.491-181.491C371.981,88.757,290.726,7.5,190.49,7.5z M183.67,95.542v31.486
			c-11.354,1.499-21.743,6.012-30.336,12.755l-22.412-22.414C145.411,105.112,163.639,97.201,183.67,95.542z M119.863,128.427
			l22.477,22.47c-6.629,8.605-11.066,18.961-12.479,30.279H98.044C99.695,161.143,107.607,142.907,119.863,128.427z M98.044,196.815
			h31.817c1.412,11.309,5.85,21.668,12.471,30.266l-22.469,22.477C107.607,235.076,99.695,216.839,98.044,196.815z M183.67,282.44
			c-20.031-1.656-38.267-9.57-52.747-21.826l22.413-22.414c8.591,6.742,18.979,11.259,30.334,12.753V282.44z M186.964,211.395
			l-4.505,0.119l-11.991-1.619l-1.611-11.987l0.123-4.498c0.143-5.353,3.328-12.76,7.108-16.539l34.266-34.27l-6.848-6.858
			c-3.789-3.788-3.789-9.923,0-13.708c3.778-3.782,9.917-3.782,13.706,0l6.852,6.858l27.416-27.416
			c7.567-7.568,19.842-7.568,27.409,0c7.575,7.567,7.575,19.841,0,27.416l-27.409,27.408l6.852,6.859
			c3.785,3.779,3.785,9.92,0,13.698c-3.789,3.789-9.921,3.789-13.71,0l-6.852-6.851l-34.264,34.267
			C199.717,208.065,192.309,211.249,186.964,211.395z M199.312,282.441v-31.364c11.47-1.359,21.964-5.835,30.672-12.54l22.07,22.079
			C237.572,272.872,219.343,280.784,199.312,282.441z M263.11,249.56l-22.02-22.021c6.822-8.689,11.372-19.213,12.818-30.723v0.003
			h31.026C283.28,216.841,275.366,235.078,263.11,249.56z"/>
	</g>
</g>
<g id="Layer_2">
</g>
</svg>
